<svg width="302" height="336" viewBox="0 0 302 336" fill="none" xmlns="http://www.w3.org/2000/svg">
<rect width="302" height="336" rx="8" fill="#ACA7C3"/>
<path d="M252.926 84H225.1V204.879C225.1 209.251 222.035 212.594 218.026 212.594H73V237.285C73 241.657 76.0657 245 80.0742 245H252.926C256.935 245 260 241.656 260 237.285V91.7155C260 87.3431 256.935 84 252.926 84Z" fill="#7B61FF" fill-opacity="0.64"/>
<path d="M219.903 214C223.925 214 227 210.641 227 206.249V84.8134V59.751C227 55.3584 223.924 52 219.903 52H49.097C45.0755 52 42 55.3589 42 59.751V206.249C42 210.642 45.0755 214 49.097 214H74.4103H219.903Z" fill="#7B61FF"/>
<path d="M176.099 100.214C176.099 87.6048 166.672 77.3115 155.124 77.3115C143.576 77.3115 134.148 87.6048 134.148 100.214C134.148 112.823 143.576 123.117 155.124 123.117C166.672 123.117 176.099 112.823 176.099 100.214Z" fill="#4B31D3" fill-opacity="0.64"/>
<path d="M118.123 104.589C115.766 104.589 113.645 105.875 112.231 107.934L70.9876 173.811C69.5734 176.127 69.3379 179.215 70.5162 181.788C71.6945 184.361 74.0515 185.906 76.8794 185.906H141.219H196.368C199.196 185.906 201.553 184.104 202.731 181.531C203.909 178.957 203.674 175.612 201.788 173.296L174.214 135.726C172.8 133.925 170.915 132.895 168.794 132.895C166.673 132.895 164.552 133.925 163.373 135.726L151.59 151.68L124.015 107.934C122.601 105.875 120.48 104.589 118.123 104.589Z" fill="#4B31D3" fill-opacity="0.64"/>
</svg>
